<svg width="30" height="30" viewBox="0 0 30 30" fill="none" xmlns="http://www.w3.org/2000/svg">
<path d="M2.06055 2.95001H6.72721L9.85388 18.5717C9.96057 19.1088 10.2528 19.5913 10.6794 19.9347C11.1059 20.2781 11.6397 20.4605 12.1872 20.45H23.5272C24.0747 20.4605 24.6085 20.2781 25.0351 19.9347C25.4617 19.5913 25.7539 19.1088 25.8605 18.5717L27.7272 8.78335H7.89388M12.5605 26.2833C12.5605 26.9277 12.0382 27.45 11.3939 27.45C10.7495 27.45 10.2272 26.9277 10.2272 26.2833C10.2272 25.639 10.7495 25.1167 11.3939 25.1167C12.0382 25.1167 12.5605 25.639 12.5605 26.2833ZM25.3939 26.2833C25.3939 26.9277 24.8715 27.45 24.2272 27.45C23.5829 27.45 23.0605 26.9277 23.0605 26.2833C23.0605 25.639 23.5829 25.1167 24.2272 25.1167C24.8715 25.1167 25.3939 25.639 25.3939 26.2833Z" stroke="white" stroke-width="4" stroke-linecap="round" stroke-linejoin="round"/>
</svg>
